<svg width="744" height="747" viewBox="0 0 744 747" xmlns="http://www.w3.org/2000/svg"><title>Elements / Targets / Icon Logo 12</title><g fill="none" fill-rule="evenodd"><path fill="#EFEFEA" d="M456.667 499.681l-.371-44.361-44.018-.028-.05 37.222-17.539 17.534-16.924-16.928-.378-38.12-44.357.372-.03 44.02 37.221.058 17.534 17.536-17.534 17.53-37.129.149.144 44.129 44.163.182.366-38.135 16.924-16.929 17.539 17.542.143 37.128 44.134-.143.182-44.171-38.136-.359-16.933-16.923 16.933-16.932z"/><path fill="#CB9C58" d="M212.502 258H106l106.502 105.885zm149.888-43.99L256 107v107.01zM226 213.583h16.977V125H226zm108.714-102.286h29.734v30.486l-31.707 31.98 37.87 37.735 37.66-37.735-33.101-33.027v-29.439h31.612l31.979 32.083 37.735-37.683-37.735-37.494-33.025 33.266H375.17V70.761l33.169-33.027L370.676 0l-37.972 37.734 31.744 31.98v31.755H335.76l-33.025-33.24L265 105.855l37.735 37.579zM498 213.583h16.083V125H498zm33 31.394h85.777V228H531zM531 258v105.226L636.838 258zm-47.086-44.465V107L378 213.535zM109.682 406.737v-28.948h32.101l31.98 31.837 37.733-37.806-37.733-37.758-33.026 33.003h-31.055v-30.303l33.413-33.026L105.555 266l-37.708 37.736 32.006 31.98v31.349H70.76l-33.025-33.037L0 371.757l37.735 37.873 31.98-31.841h30.138v29.996l-31.909 31.978 37.77 37.736 37.363-37.736zM125 244.977h87.81V228H125zm406 271.107h85.777V500H531zm-33 102.711h16.083V532H498zm175.782-240.161l31.979 31.916 37.736-37.768-37.736-37.815-33.024 32.944h-31.126v-30.15l33.45-33.025L637.537 267l-37.735 37.736 31.98 31.979v31.196h-29.021l-33.028-32.961L532 372.717l37.733 37.815 31.98-31.898h30.069v30.148l-31.875 31.98 37.788 37.736 37.338-37.736-33.422-33.024v-29.104zM531 486.225h105.838L531 381zM379 532l104.721 105.335V532zm-153 86.795h16.977V532H226zM212.502 380L106 485.885h106.502zM123 516.084h89.597V500H123zM256 532v105.811L361.197 532zm148.737 104.095h-30.413v-30.331l33.093-33.028L369.716 535l-37.915 37.736 31.8 31.98v31.379h-28.84l-33.025-33.054L264 640.765l37.736 37.881 31.979-31.829h29.886v29.967l-31.782 31.98 37.832 37.736 37.715-37.736-33.042-33.026v-28.921h31.46l31.979 31.825 37.735-37.815-37.735-37.747z"/><path fill="#C18431" d="M222 523.328h299.327V224H222z"/><path d="M475.703 395.194c-14.263-11.263-33.158-11.495-40.076-9.849l-.804.186c-7.992 1.887-20.686 5.011-35.544 23.45a9.831 9.831 0 0 0-.248.314l-.187.226a1.24 1.24 0 0 0-.246.718c0 .223.055.428.16.618l.345.566c1.865 3.121 4.218 7.137 6.204 10.836.02.04.04.07.055.114.211.41.634.697 1.133.697.345 0 .653-.137.877-.357a4.88 4.88 0 0 0 .27-.376c13.19-18.24 23.56-20.758 30.576-22.409l.838-.197c3.642-.874 17.484-.82 27.48 7.067 7.798 6.158 11.757 15.958 11.757 29.121 0 22.081-10.739 30.72-19.754 34.077-13.96 5.22-27.348-1.759-27.447-1.812l-.6-.29c-7.669-3.33-19.114-10.259-29.899-31.922-21.743-43.665-39.927-47.776-51.96-50.502l-.644-.142c-5.478-1.243-24.506-2.122-39.463 9.817-7.816 6.235-17.125 18.356-17.125 40.686 0 13.606 2.795 22.588 9.98 32.041 1.576 2.154 17.676 22.838 48.803 16.873 4.982-.955 11.732-3.334 19.154-8.898l6.851 6.182a1.125 1.125 0 0 0 1.572-.079c.196-.21.28-.478.274-.74v-.094l4.943-30.404.004-.336a1.086 1.086 0 0 0-.368-.809 1.02 1.02 0 0 0-.726-.275l-.21.018-.322.035-29.122 8.152-.528.086a1.002 1.002 0 0 0-.556.326 1.1 1.1 0 0 0 .081 1.578l.341.317 6.526 5.892c-4.213 2.728-7.885 3.978-10.687 4.521-22.52 4.297-33.64-10.453-34.063-11.032l-.159-.216c-5.232-6.87-6.999-12.707-6.999-23.138 0-13.203 3.888-23.006 11.56-29.13 9.74-7.775 23.17-7.819 26.964-6.953l.654.146c9.861 2.232 23.372 5.285 41.98 42.668 9.666 19.406 21.772 32.096 37.007 38.787 1.94.991 11.19 5.376 23.194 5.376 5.021 0 10.52-.766 16.161-2.863 8.83-3.295 29.371-14.557 29.371-47.943 0-22.318-9.45-34.463-17.378-40.725M263.636 267.393h.098v49.844h10.946v-65.113h-8.748l-10.076 11.814v11.427h.093zm17.57-1.821v7.872h9.987v-8.165c0-3.934 1.925-5.087 4.225-5.087 2.117 0 3.939.861 3.939 4.9v5.374c0 5.38-.478 7.491-4.036 11.237l-6.142 6.53c-5.954 6.34-8.168 10.565-8.168 17.001v12.004h28.432v-8.933h-17.964v-3.07c0-5.094 1.827-7.013 4.61-9.99l7.01-7.395c5.668-6.049 6.919-9.893 6.919-16.423v-6.335c0-9.319-4.513-13.734-14.31-13.734-9.607 0-14.502 5.088-14.502 14.214" fill="#FFFFFE"/><path fill="#C18431" d="M101 309.722h9.829V299H101zm68 68h9.829V367H169zm-68 68h9.829V435H101zm-69-68h10.723V367H32zM366 43.723h10.722V33H366zm68 67.106h10.722V101H434zm-68 68h10.722V169H366zm-68-68h10.722V101H298zm335 199.894h9.829V300H633zm68 68h9.829V368H701zm-68 68h9.829V436H633zm-69-68h10.722V368H564zM365 578.722h10.722V568H365zm68 68.002h10.722V636H433zm-68 67.999h10.722V704H365zm-68-67.999h9.829V636H297zm317.294-35.266l7.227-7.228 16.274-.16-.158-18.936-18.792-.012-.024 15.891-7.485 7.485-7.226-7.225-.161-16.273-18.936.156L585 603.95l15.89.022 7.486 7.486-7.486 7.484-15.852.063.063 18.843 18.856.077.153-16.282 7.226-7.226 7.485 7.487.063 15.853 18.843-.065.076-18.856-16.282-.151zm-477.999 0l7.226-7.228 16.274-.16-.158-18.936-18.792-.012-.024 15.891-7.485 7.485-7.227-7.225L125.95 585l-18.938.156L107 603.95l15.89.022 7.487 7.486-7.487 7.484-15.852.063.063 18.843 18.856.077.152-16.282 7.227-7.226 7.485 7.487.063 15.853 18.842-.065.076-18.856-16.281-.151zM146 212.227h65.226V147H194.25v48.249H146zm451.226 0v-16.978h-48.25V147H532v65.227h17.713zm-1 320.773H531v65.226h16.977v-48.249h48.249zM146 533v16.977h48.25v48.249h16.976V533h-16.235zm463.378-400.541l-7.487 7.486-15.851.062.063 18.843 18.854.076.153-16.281 7.227-7.227 7.484 7.487.065 15.852 18.842-.062.076-18.856-16.281-.153-7.228-7.227 7.228-7.226 16.275-.159-.16-18.939-18.791-.012-.026 15.891-7.484 7.486-7.227-7.226-.16-16.274-18.935.158L586 124.95l15.891.023zm-478.001 0l-7.487 7.486-15.852.062.063 18.843 18.855.076.152-16.281 7.229-7.227 7.485 7.487.063 15.852 18.841-.062.076-18.856-16.28-.153-7.227-7.227 7.227-7.226 16.273-.159-.156-18.939-18.794-.012-.023 15.891-7.485 7.486-7.229-7.226L126.95 106l-18.937.158L108 124.95l15.89.023z"/></g></svg>